<svg width="32" height="32" viewBox="0 0 32 32" fill="none" xmlns="http://www.w3.org/2000/svg">
<g clip-path="url(#clip0_601_9)">
<path d="M24.932 0H7.06797C3.16444 0 0 3.16444 0 7.06797V24.932C0 28.8356 3.16444 32 7.06797 32H24.932C28.8356 32 32 28.8356 32 24.932V7.06797C32 3.16444 28.8356 0 24.932 0Z" fill="white"/>
<path d="M14.8116 22H5.94581C4.59502 22 3.65638 20.6623 4.11979 19.4011L7.05939 11.4157C7.37241 10.5654 8.18591 10 9.09627 10H15.0325C15.699 10 16.3202 10.3413 16.6771 10.9023L20.1655 16.3981C20.4297 16.814 21.0568 16.7492 21.2303 16.2903L23.6105 10H28L23.9951 20.7388C23.7131 21.4979 22.9854 22 22.173 22H19.3334C18.6648 22 18.0417 21.6587 17.6868 21.0938L12.1634 12.3459C11.8991 11.9281 11.2701 11.9928 11.0965 12.4557L8.67104 18.9735C8.52709 19.3619 8.81499 19.7738 9.23107 19.7738H13.3859L14.8097 22H14.8116Z" fill="black"/>
</g>
<defs>
<clipPath id="clip0_601_9">
<rect width="32" height="32" fill="white"/>
</clipPath>
</defs>
</svg>
